<svg xmlns="http://www.w3.org/2000/svg" width="57.234" height="65.004" viewBox="0 0 57.234 65.004"><defs><style>.a{fill:#fff;stroke:rgba(0,0,0,0);}</style></defs><path class="a" d="M22064.2-16805.268c-8,0-12.051-4.057-12.051-12.053v-13.1c0-4.211,1.385-6.744,4.459-8.045-2.914-1.6-4.283-4.545-4.283-9.166v-9.584c0-7.99,4.057-12.053,12.053-12.053h1.418c8,0,12.051,4.063,12.051,12.053v9.584c0,4.621-1.369,7.57-4.283,9.166,3.07,1.3,4.461,3.834,4.461,8.045v13.1c0,8-4.057,12.053-12.051,12.053Zm-4.189-25.229v14.656c0,2.893,1.3,4.184,4.189,4.184h1.773c2.9,0,4.184-1.291,4.184-4.184v-14.656c0-2.893-1.287-4.184-4.184-4.184h-1.773C22061.307-16834.68,22060.01-16833.389,22060.01-16830.5Zm.094-28.2v13.525c0,2.9,1.291,4.189,4.184,4.189h1.6c2.9,0,4.184-1.291,4.184-4.189v-13.525c0-2.9-1.285-4.184-4.184-4.184h-1.6C22061.395-16862.877,22060.1-16861.592,22060.1-16858.693Zm-38.314,52.982v-63.117h11.393c9.131,0,13.025,3.658,13.025,12.24v38.637c0,8.582-3.895,12.24-13.025,12.24Zm7.375-5.785h4.078c4.25,0,5.613-1.336,5.613-5.5v-40.549c0-4.16-1.363-5.5-5.613-5.5h-4.078Z" transform="translate(-22021.289 16869.771)"/></svg>